# Blender 4.0.2
# www.blender.org
mtllib tri_orangeFlipper.mtl
o Cube
v 0.200000 -0.000000 -0.200000
v 0.200000 0.400000 -0.200000
v 0.800000 0.400000 -0.130000
v 0.730000 0.400000 -0.200000
v 0.779498 0.400000 -0.179497
v 0.730000 -0.000000 -0.200000
v 0.800000 -0.000000 -0.130000
v 0.779498 -0.000000 -0.179497
v 0.733592 0.400000 0.022136
v 0.800000 0.400000 -0.070000
v 0.780550 0.400000 -0.014019
v 0.800000 -0.000000 -0.070000
v 0.733592 -0.000000 0.022136
v 0.780550 -0.000000 -0.014019
v 0.130000 0.400000 0.200000
v 0.266408 0.400000 0.177864
v 0.200000 0.400000 0.130000
v 0.198948 0.400000 0.193517
v 0.266408 -0.000000 0.177864
v 0.130000 -0.000000 0.200000
v 0.200000 -0.000000 0.130000
v 0.198948 -0.000000 0.193517
v -0.100000 0.400000 -0.200000
v -0.200000 0.400000 -0.100000
v -0.170711 0.400000 -0.170711
v -0.200000 -0.000000 -0.100000
v -0.100000 -0.000000 -0.200000
v -0.170711 -0.000000 -0.170711
v -0.200000 0.400000 0.100000
v -0.100000 0.400000 0.200000
v -0.170711 0.400000 0.170711
v -0.100000 -0.000000 0.200000
v -0.200000 -0.000000 0.100000
v -0.170711 -0.000000 0.170711
vn -0.0000 -0.0000 1.0000
vn -0.0000 -1.0000 -0.0000
vn -0.0000 1.0000 -0.0000
vn 0.3162 -0.0000 0.9487
vn 1.0000 -0.0000 -0.0000
vn -1.0000 -0.0000 -0.0000
vn 0.9239 -0.0000 -0.3827
vn 0.3827 -0.0000 -0.9239
vn 0.6101 -0.0000 0.7923
vn 0.9446 -0.0000 0.3282
vn 0.0936 -0.0000 0.9956
vn 0.2260 -0.0000 0.9741
vn -0.0000 -0.0000 -1.0000
vn -0.3827 -0.0000 0.9239
vn -0.9239 -0.0000 0.3827
vn -0.3827 -0.0000 -0.9239
vn -0.9239 -0.0000 -0.3827
vt 0.625000 0.948438
vt 0.375000 0.984375
vt 0.375000 0.948438
vt 0.129576 0.518306
vt 0.176562 0.750000
vt 0.129576 0.731694
vt 0.859375 0.500000
vt 0.870424 0.731694
vt 0.823437 0.750000
vt 0.625000 0.770752
vt 0.375000 0.916748
vt 0.375000 0.770752
vt 0.631407 0.523662
vt 0.791748 0.750000
vt 0.631078 0.727172
vt 0.625000 0.587500
vt 0.375000 0.662500
vt 0.375000 0.587500
vt 0.625000 0.062500
vt 0.375000 0.187500
vt 0.375000 0.062500
vt 0.353125 0.500000
vt 0.368922 0.727172
vt 0.208252 0.750000
vt 0.812500 0.745948
vt 0.812500 0.706250
vt 0.812500 0.736165
vt 0.187500 0.736165
vt 0.187500 0.745948
vt 0.187500 0.706250
vt 0.625000 0.500000
vt 0.375000 0.500000
vt 0.625000 0.478125
vt 0.625000 0.750000
vt 0.375000 0.750000
vt 0.625000 0.662500
vt 0.625000 0.937500
vt 0.375000 0.937500
vt 0.625000 0.916748
vt 0.625000 0.312500
vt 0.375000 0.478125
vt 0.375000 0.312500
vt 0.625000 0.984375
vt 0.375000 1.000000
vt 0.625000 0.000000
vt 0.375000 0.000000
vt 0.375000 0.265625
vt 0.625000 0.250000
vt 0.625000 0.265625
vt 0.375000 0.250000
vt 0.625000 0.187500
vt 0.125000 0.687500
vt 0.125000 0.562500
vt 0.140625 0.500000
vt 0.187500 0.500000
vt 0.140625 0.750000
vt 0.812500 0.500000
vt 0.870423 0.518306
vt 0.875000 0.562500
vt 0.875000 0.687500
vt 0.859375 0.750000
vt 0.625000 0.662500
vt 0.646875 0.500000
vt 0.645752 0.750000
vt 0.368593 0.523662
vt 0.375000 0.662500
vt 0.354248 0.750000
vt 0.625000 1.000000
s 0
usemtl Material
f 15/1/1 32/2/1 20/3/1
f 28/4/2 20/5/2 34/6/2
f 23/7/3 31/8/3 15/9/3
f 9/10/4 19/11/4 13/12/4
f 5/13/3 16/14/3 11/15/3
f 3/16/5 12/17/5 7/18/5
f 29/19/6 26/20/6 33/21/6
f 6/22/2 14/23/2 19/24/2
f 15/9/3 18/25/3 17/26/3
f 18/25/3 16/27/3 17/26/3
f 19/28/2 22/29/2 21/30/2
f 22/29/2 20/5/2 21/30/2
f 7/18/7 5/31/7 3/16/7
f 8/32/8 4/33/8 5/31/8
f 13/12/9 11/34/9 9/10/9
f 14/35/10 10/36/10 11/34/10
f 20/3/11 18/37/11 15/1/11
f 22/38/12 16/39/12 18/37/12
f 2/40/13 6/41/13 1/42/13
f 30/43/14 34/44/14 32/2/14
f 31/45/15 33/21/15 34/46/15
f 27/47/16 25/48/16 23/49/16
f 28/50/17 24/51/17 25/48/17
f 23/49/13 1/42/13 27/47/13
f 15/1/1 30/43/1 32/2/1
f 33/52/2 26/53/2 28/4/2
f 28/4/2 27/54/2 1/55/2
f 1/55/2 21/30/2 20/5/2
f 20/5/2 32/56/2 34/6/2
f 34/6/2 33/52/2 28/4/2
f 28/4/2 1/55/2 20/5/2
f 17/26/3 2/57/3 23/7/3
f 23/7/3 25/58/3 24/59/3
f 24/59/3 29/60/3 31/8/3
f 31/8/3 30/61/3 15/9/3
f 15/9/3 17/26/3 23/7/3
f 23/7/3 24/59/3 31/8/3
f 9/10/4 16/39/4 19/11/4
f 10/62/3 3/16/3 5/13/3
f 5/13/3 4/63/3 2/57/3
f 2/57/3 17/26/3 16/14/3
f 16/14/3 9/64/3 11/15/3
f 11/15/3 10/62/3 5/13/3
f 5/13/3 2/57/3 16/14/3
f 3/16/5 10/36/5 12/17/5
f 29/19/6 24/51/6 26/20/6
f 21/30/2 1/55/2 6/22/2
f 6/22/2 8/65/2 7/18/2
f 7/18/2 12/66/2 14/23/2
f 14/23/2 13/67/2 19/24/2
f 19/24/2 21/30/2 6/22/2
f 6/22/2 7/18/2 14/23/2
f 7/18/7 8/32/7 5/31/7
f 8/32/8 6/41/8 4/33/8
f 13/12/9 14/35/9 11/34/9
f 14/35/10 12/17/10 10/36/10
f 20/3/11 22/38/11 18/37/11
f 22/38/12 19/11/12 16/39/12
f 2/40/13 4/33/13 6/41/13
f 30/43/14 31/68/14 34/44/14
f 31/45/15 29/19/15 33/21/15
f 27/47/16 28/50/16 25/48/16
f 28/50/17 26/20/17 24/51/17
f 23/49/13 2/40/13 1/42/13
